<?xml version="1.0" standalone="no"?>
<!DOCTYPE svg PUBLIC "-//W3C//DTD SVG 20010904//EN"
 "http://www.w3.org/TR/2001/REC-SVG-20010904/DTD/svg10.dtd">
<svg version="1.0" xmlns="http://www.w3.org/2000/svg"
 width="384.000000pt" height="214.000000pt" viewBox="0 0 384.000000 214.000000"
 preserveAspectRatio="xMidYMid meet">

<g transform="translate(0.000000,214.000000) scale(0.100000,-0.100000)"
fill="#000000" stroke="none">
<path d="M1380 2025 l-105 -105 215 -215 215 -215 -213 -212 -212 -213 -215
215 -215 215 -100 -100 c-55 -55 -100 -104 -100 -110 0 -5 95 -104 210 -220
l210 -210 -215 -215 -215 -215 -208 207 c-114 114 -211 211 -215 215 -8 8
-207 -185 -207 -202 0 -13 622 -635 635 -635 6 0 150 139 320 310 170 170 314
310 320 310 5 0 151 -141 322 -312 l313 -313 313 313 c171 171 317 312 322
312 6 0 150 -139 320 -310 170 -171 314 -310 320 -310 13 0 635 622 635 635 0
6 -45 55 -100 110 l-100 99 -31 -29 c-17 -17 -114 -113 -216 -214 l-184 -185
-210 210 c-115 115 -209 213 -209 219 0 6 92 102 205 215 113 113 205 209 205
215 0 6 -45 55 -100 110 l-100 100 -215 -215 -215 -215 -212 213 -213 212 215
215 215 215 -108 107 -107 108 -215 -215 -215 -215 -207 205 c-114 113 -209
208 -211 213 -7 15 -19 5 -122 -98z m755 -965 l210 -210 -213 -213 -212 -212
-212 212 -213 213 210 210 c115 115 212 210 215 210 3 0 100 -95 215 -210z"/>
</g>
</svg>
