<?xml version="1.0" standalone="no"?>
<!DOCTYPE svg PUBLIC "-//W3C//DTD SVG 20010904//EN"
 "http://www.w3.org/TR/2001/REC-SVG-20010904/DTD/svg10.dtd">
<svg version="1.0" xmlns="http://www.w3.org/2000/svg"
 width="216.000000pt" height="233.000000pt" viewBox="0 0 216.000000 233.000000"
 preserveAspectRatio="xMidYMid meet">

<g transform="translate(0.000000,233.000000) scale(0.100000,-0.100000)"
fill="#000000" stroke="none">
<path d="M1067 2003 c-3 -58 -9 -89 -18 -92 -7 -2 -23 -15 -36 -29 -27 -29
-32 -97 -8 -128 9 -11 14 -42 15 -77 0 -52 -2 -58 -25 -67 -24 -9 -25 -12 -25
-103 0 -88 -1 -95 -26 -118 -33 -30 -74 -115 -74 -154 0 -39 -10 -52 -40 -56
-21 -3 -26 -11 -33 -52 -4 -27 -6 -94 -5 -150 l3 -102 285 0 285 0 1 140 c0
77 -4 146 -9 153 -5 6 -20 12 -32 12 -20 0 -24 7 -30 43 -10 59 -42 131 -71
158 -22 20 -24 31 -24 105 0 97 -5 112 -36 125 -21 7 -24 15 -24 62 0 29 6 61
13 72 35 51 24 126 -23 153 -23 13 -29 25 -34 67 -3 27 -6 67 -6 88 0 73 -17
35 -23 -50z m-9 -506 c3 -52 1 -57 -18 -57 -18 0 -20 6 -20 53 0 30 3 57 7 61
17 16 28 -5 31 -57z m80 0 c3 -52 1 -57 -18 -57 -18 0 -20 6 -20 53 0 30 3 57
7 61 17 16 28 -5 31 -57z m-16 -174 c46 -42 -9 -121 -64 -92 -28 15 -38 28
-38 53 0 48 64 73 102 39z"/>
<path d="M1050 1316 c-28 -35 11 -93 48 -70 35 22 22 84 -18 84 -10 0 -23 -7
-30 -14z"/>
<path d="M790 740 l0 -100 290 0 290 0 0 100 0 100 -290 0 -290 0 0 -100z"/>
<path d="M790 505 l0 -95 290 0 290 0 0 95 0 95 -290 0 -290 0 0 -95z"/>
</g>
</svg>
