<?xml version="1.0" standalone="no"?>
<!DOCTYPE svg PUBLIC "-//W3C//DTD SVG 20010904//EN"
 "http://www.w3.org/TR/2001/REC-SVG-20010904/DTD/svg10.dtd">
<svg version="1.0" xmlns="http://www.w3.org/2000/svg"
 width="200.000000pt" height="200.000000pt" viewBox="0 0 200.000000 200.000000"
 preserveAspectRatio="xMidYMid meet">

<g transform="translate(0.000000,200.000000) scale(0.100000,-0.100000)"
fill="#000000" stroke="none">
<path d="M237 1518 c-9 -46 -17 -97 -17 -113 0 -17 -5 -36 -12 -43 -9 -9 -9
-15 0 -24 15 -15 17 -558 2 -558 -6 0 -10 -60 -10 -159 l0 -160 -41 -3 c-49
-3 -71 -27 -53 -55 11 -17 64 -18 894 -18 830 0 883 1 894 18 18 28 -4 52 -53
55 l-41 3 0 160 c0 99 -4 159 -10 159 -15 0 -13 543 2 558 9 9 9 15 0 24 -7 7
-12 26 -12 42 0 39 -32 196 -40 196 -8 0 -40 -157 -40 -194 0 -16 -8 -35 -17
-42 -17 -13 -17 -15 0 -28 15 -12 17 -38 17 -285 0 -174 -4 -271 -10 -271 -5
0 -10 10 -10 23 0 35 -94 134 -141 148 -22 7 -39 18 -39 26 0 26 -124 140
-161 148 -33 7 -80 50 -142 129 -29 38 -91 75 -142 85 -20 5 -31 14 -35 31 -8
32 -32 32 -40 0 -4 -17 -15 -26 -35 -31 -51 -10 -113 -47 -142 -85 -62 -79
-109 -122 -142 -129 -37 -8 -161 -122 -161 -148 0 -8 -14 -17 -32 -21 -42 -8
-148 -118 -148 -153 0 -12 -4 -23 -10 -23 -6 0 -10 97 -10 271 0 247 2 273 18
285 16 13 16 15 0 28 -10 7 -18 26 -18 42 0 37 -32 194 -40 194 -3 0 -14 -37
-23 -82z m856 -234 c36 -18 77 -53 77 -66 0 -4 -76 -8 -170 -8 -93 0 -170 4
-170 8 0 12 40 47 75 65 40 22 146 22 188 1z m-261 -126 c-5 -7 -12 -22 -14
-33 -3 -14 -6 -11 -9 13 -5 27 -2 32 14 32 14 0 17 -3 9 -12z m52 -3 c-5 -12
-10 -13 -20 -4 -19 15 -18 19 6 19 13 0 18 -5 14 -15z m48 -7 c-4 -16 -7 -18
-10 -8 -3 8 -10 18 -16 22 -6 5 -2 8 11 8 17 0 20 -4 15 -22z m49 -10 c-5 -30
-6 -31 -9 -8 -2 14 -9 28 -16 32 -7 5 -3 8 10 8 18 0 20 -5 15 -32z m63 24
c-7 -4 -14 -18 -16 -32 -3 -23 -4 -22 -9 8 -5 27 -3 32 15 32 13 0 17 -3 10
-8z m50 0 c-6 -4 -13 -14 -16 -22 -3 -10 -6 -8 -10 8 -5 18 -2 22 15 22 13 0
17 -3 11 -8z m46 -7 c-7 -8 -14 -15 -15 -15 -2 0 -5 7 -9 15 -4 10 1 15 16 15
17 0 18 -2 8 -15z m51 -17 c-3 -24 -6 -27 -9 -13 -2 11 -9 26 -14 33 -8 9 -5
12 9 12 16 0 19 -5 14 -32z m-425 -25 c-11 -11 -19 6 -11 24 8 17 8 17 12 0 3
-10 2 -21 -1 -24z m484 11 c0 -8 -4 -14 -10 -14 -5 0 -10 9 -10 21 0 11 5 17
10 14 6 -3 10 -13 10 -21z m-540 -46 c-1 -30 -28 -48 -69 -48 -48 0 -47 11 3
41 36 22 66 25 66 7z m639 -2 c15 -8 33 -22 40 -30 12 -14 8 -16 -29 -16 -29
0 -47 6 -56 18 -31 40 -7 54 45 28z m-116 -28 c-3 -18 -15 -40 -26 -49 -19
-16 -23 -15 -63 16 -58 45 -128 61 -195 45 -28 -7 -70 -27 -93 -45 -40 -31
-44 -32 -63 -16 -11 9 -23 31 -26 49 l-6 32 239 0 240 0 -7 -32z m-148 -47
c47 -22 89 -64 104 -104 6 -16 11 -58 11 -93 l0 -65 -22 15 c-34 24 -99 20
-142 -9 l-36 -24 -36 24 c-43 29 -108 33 -142 9 l-22 -15 0 69 c0 96 28 147
99 184 63 33 127 36 186 9z m-465 -21 c0 -13 -7 -20 -20 -20 -18 0 -19 2 -8
20 7 11 16 20 20 20 5 0 8 -9 8 -20z m40 0 c0 -11 -4 -20 -10 -20 -5 0 -10 9
-10 20 0 11 5 20 10 20 6 0 10 -9 10 -20z m700 0 c0 -11 -4 -20 -10 -20 -5 0
-10 9 -10 20 0 11 5 20 10 20 6 0 10 -9 10 -20z m40 6 c0 -8 6 -17 13 -19 6
-3 2 -6 -10 -6 -17 -1 -23 5 -23 19 0 11 5 20 10 20 6 0 10 -6 10 -14z m-844
-23 c-10 -10 -19 5 -10 18 6 11 8 11 12 0 2 -7 1 -15 -2 -18z m904 6 c0 -5 -4
-9 -10 -9 -5 0 -10 7 -10 16 0 8 5 12 10 9 6 -3 10 -10 10 -16z m-700 -149 l0
-140 -30 0 -30 0 0 140 0 140 30 0 30 0 0 -140z m540 0 l0 -140 -30 0 -30 0 0
140 0 140 30 0 30 0 0 -140z m-800 70 c0 -29 -1 -30 -51 -30 -57 0 -57 10 -1
40 49 26 52 25 52 -10z m160 -90 l0 -120 -60 0 -60 0 0 120 0 120 60 0 60 0 0
-120z m800 0 l0 -120 -60 0 -60 0 0 120 0 120 60 0 60 0 0 -120z m90 100 c58
-30 58 -40 1 -40 -50 0 -51 1 -51 30 0 36 0 36 50 10z m-1150 -80 c0 -13 -7
-20 -20 -20 -18 0 -19 3 -10 20 6 11 15 20 20 20 6 0 10 -9 10 -20z m60 0 c0
-11 -7 -20 -15 -20 -17 0 -18 2 -9 24 9 23 24 20 24 -4z m40 0 c0 -11 -4 -20
-10 -20 -5 0 -10 9 -10 20 0 11 5 20 10 20 6 0 10 -9 10 -20z m1020 0 c0 -11
-4 -20 -10 -20 -5 0 -10 9 -10 20 0 11 5 20 10 20 6 0 10 -9 10 -20z m40 6 c0
-8 6 -17 13 -19 6 -3 2 -6 -10 -6 -17 -1 -23 5 -23 19 0 11 5 20 10 20 6 0 10
-6 10 -14z m60 0 c0 -8 6 -17 13 -19 6 -3 2 -6 -10 -6 -17 -1 -23 5 -23 19 0
11 5 20 10 20 6 0 10 -6 10 -14z m-1120 -106 l0 -40 -50 0 c-45 0 -51 3 -65
30 -24 46 -20 50 50 50 l65 0 0 -40z m1120 0 c-20 -39 -22 -40 -70 -40 l-50 0
0 40 0 40 70 0 70 0 -20 -40z m-1271 -30 l31 -50 210 0 c207 0 209 0 221 23
47 91 115 88 176 -8 13 -20 13 -20 25 0 62 96 130 99 177 8 12 -23 14 -23 221
-23 l210 0 31 50 c28 46 34 50 70 50 l39 0 0 -140 c0 -132 -1 -140 -20 -140
-17 0 -19 8 -22 71 -2 55 -7 74 -20 83 -13 8 -23 8 -35 0 -14 -9 -19 -28 -21
-83 -3 -62 -5 -71 -22 -71 -17 0 -19 9 -22 71 -2 55 -7 74 -20 83 -13 8 -23 8
-35 0 -14 -9 -19 -28 -21 -83 -3 -62 -5 -71 -22 -71 -17 0 -19 9 -22 71 -2 55
-7 74 -20 83 -13 8 -23 8 -35 0 -14 -9 -19 -28 -21 -83 -3 -62 -5 -71 -22 -71
-17 0 -19 9 -22 71 -2 55 -7 74 -21 83 -12 8 -22 8 -35 0 -13 -9 -18 -28 -20
-83 -3 -62 -5 -71 -22 -71 -17 0 -19 9 -22 71 -2 55 -7 74 -20 83 -13 8 -23 8
-35 0 -14 -9 -19 -28 -21 -83 -3 -62 -5 -71 -22 -71 -17 0 -19 9 -22 71 -2 55
-7 74 -20 83 -13 8 -23 8 -35 0 -14 -9 -19 -28 -21 -83 l-3 -71 -39 0 -39 0
-3 71 c-2 55 -7 74 -20 83 -13 8 -23 8 -35 0 -14 -9 -19 -28 -21 -83 -3 -62
-5 -71 -22 -71 -17 0 -19 9 -22 71 -2 55 -7 74 -20 83 -13 8 -23 8 -35 0 -14
-9 -19 -28 -21 -83 -3 -62 -5 -71 -22 -71 -17 0 -19 9 -22 71 -2 55 -7 74 -20
83 -13 8 -23 8 -35 0 -14 -9 -19 -28 -21 -83 -3 -62 -5 -71 -22 -71 -17 0 -19
9 -22 71 -2 55 -7 74 -20 83 -13 8 -23 8 -35 0 -14 -9 -19 -28 -21 -83 -3 -62
-5 -71 -22 -71 -17 0 -19 9 -22 71 -2 55 -7 74 -21 83 -12 8 -22 8 -35 0 -13
-9 -18 -28 -20 -83 -3 -62 -5 -71 -22 -71 -17 0 -19 9 -22 71 -2 55 -7 74 -20
83 -13 8 -23 8 -36 0 -13 -9 -18 -28 -20 -83 -3 -63 -5 -71 -22 -71 -19 0 -20
8 -20 140 l0 140 39 0 c36 0 42 -4 70 -50z"/>
<path d="M865 939 c-13 -24 -14 -34 -5 -43 9 -8 16 -5 31 13 11 13 19 31 17
39 -5 28 -27 24 -43 -9z"/>
<path d="M932 958 c-18 -18 -15 -68 3 -68 17 0 23 12 27 49 3 27 -12 37 -30
19z"/>
<path d="M984 957 c-9 -25 0 -62 16 -62 10 0 15 10 15 34 0 36 -21 54 -31 28z"/>
<path d="M1036 962 c-10 -16 10 -67 27 -70 13 -3 17 4 17 25 0 39 -29 68 -44
45z"/>
<path d="M1094 955 c-7 -16 20 -65 36 -65 18 0 20 20 5 50 -17 33 -32 38 -41
15z"/>
<path d="M844 857 c-9 -25 0 -62 16 -62 10 0 15 10 15 34 0 36 -21 54 -31 28z"/>
<path d="M924 857 c-9 -25 0 -62 16 -62 10 0 15 10 15 34 0 36 -21 54 -31 28z"/>
<path d="M984 857 c-9 -25 0 -62 16 -62 10 0 15 10 15 34 0 36 -21 54 -31 28z"/>
<path d="M1044 857 c-9 -25 0 -62 16 -62 10 0 15 10 15 34 0 36 -21 54 -31 28z"/>
<path d="M1124 857 c-9 -25 0 -62 16 -62 10 0 15 10 15 34 0 36 -21 54 -31 28z"/>
</g>
</svg>
